<svg width="1920" height="1944" viewBox="0 0 1920 1944" fill="none" xmlns="http://www.w3.org/2000/svg">
<g clip-path="url(#clip0_160_4)">
<rect width="1920" height="1944" fill="url(#paint0_linear_160_4)"/>
<g clip-path="url(#clip1_160_4)">
<g filter="url(#filter0_d_160_4)">
<path d="M1911.5 52C1939.94 52 1963 28.9427 1963 0.5C1963 -27.9427 1939.94 -51 1911.5 -51C1883.06 -51 1860 -27.9427 1860 0.5C1860 28.9427 1883.06 52 1911.5 52Z" fill="#B8B8B8"/>
</g>
<g filter="url(#filter1_d_160_4)">
<path d="M1917.22 3.361C1921.96 3.361 1925.81 -0.481888 1925.81 -5.22233C1925.81 -9.96278 1921.96 -13.8057 1917.22 -13.8057C1912.48 -13.8057 1908.64 -9.96278 1908.64 -5.22233C1908.64 -0.481888 1912.48 3.361 1917.22 3.361Z" fill="#949494"/>
<path d="M1921.51 37.6943C1927.04 37.6943 1931.53 33.2109 1931.53 27.6804C1931.53 22.1499 1927.04 17.6665 1921.51 17.6665C1915.98 17.6665 1911.5 22.1499 1911.5 27.6804C1911.5 33.2109 1915.98 37.6943 1921.51 37.6943Z" fill="#949494"/>
<path d="M1868.58 3.36089C1870.16 3.36089 1871.44 2.07993 1871.44 0.499783C1871.44 -1.08037 1870.16 -2.36133 1868.58 -2.36133C1867 -2.36133 1865.72 -1.08037 1865.72 0.499783C1865.72 2.07993 1867 3.36089 1868.58 3.36089Z" fill="#949494"/>
<path d="M1902.92 40.5552C1904.5 40.5552 1905.78 39.2743 1905.78 37.6941C1905.78 36.114 1904.5 34.833 1902.92 34.833C1901.34 34.833 1900.06 36.114 1900.06 37.6941C1900.06 39.2743 1901.34 40.5552 1902.92 40.5552Z" fill="#949494"/>
<path d="M1888.61 20.5275C1891.77 20.5275 1894.33 17.9655 1894.33 14.8052C1894.33 11.6449 1891.77 9.08301 1888.61 9.08301C1885.45 9.08301 1882.89 11.6449 1882.89 14.8052C1882.89 17.9655 1885.45 20.5275 1888.61 20.5275Z" fill="#949494"/>
</g>
</g>
<path d="M939.5 162L939.824 168.501L943.908 163.432L940.349 168.883L946.633 167.182L940.55 169.5L946.633 171.818L940.349 170.117L943.908 175.568L939.824 170.499L939.5 177L939.176 170.499L935.092 175.568L938.651 170.117L932.367 171.818L938.45 169.5L932.367 167.182L938.651 168.883L935.092 163.432L939.176 168.501L939.5 162Z" fill="#D9D9D9"/>
<path d="M379.5 130L379.824 136.501L383.908 131.432L380.349 136.883L386.633 135.182L380.55 137.5L386.633 139.818L380.349 138.117L383.908 143.568L379.824 138.499L379.5 145L379.176 138.499L375.092 143.568L378.651 138.117L372.367 139.818L378.45 137.5L372.367 135.182L378.651 136.883L375.092 131.432L379.176 136.501L379.5 130Z" fill="#D9D9D9"/>
<path d="M273.5 158L273.824 164.501L277.908 159.432L274.349 164.883L280.633 163.182L274.55 165.5L280.633 167.818L274.349 166.117L277.908 171.568L273.824 166.499L273.5 173L273.176 166.499L269.092 171.568L272.651 166.117L266.367 167.818L272.45 165.5L266.367 163.182L272.651 164.883L269.092 159.432L273.176 164.501L273.5 158Z" fill="#D9D9D9"/>
<path d="M237.5 102L237.824 108.501L241.908 103.432L238.349 108.883L244.633 107.182L238.55 109.5L244.633 111.818L238.349 110.117L241.908 115.568L237.824 110.499L237.5 117L237.176 110.499L233.092 115.568L236.651 110.117L230.367 111.818L236.45 109.5L230.367 107.182L236.651 108.883L233.092 103.432L237.176 108.501L237.5 102Z" fill="#D9D9D9"/>
<path d="M99 120L99.2163 124.334L101.939 120.955L99.5663 124.589L103.755 123.455L99.7 125L103.755 126.545L99.5663 125.411L101.939 129.045L99.2163 125.666L99 130L98.7837 125.666L96.0611 129.045L98.4337 125.411L94.2447 126.545L98.3 125L94.2447 123.455L98.4337 124.589L96.0611 120.955L98.7837 124.334L99 120Z" fill="#D9D9D9"/>
<path d="M762.5 99L762.824 105.501L766.908 100.432L763.349 105.883L769.633 104.182L763.55 106.5L769.633 108.818L763.349 107.117L766.908 112.568L762.824 107.499L762.5 114L762.176 107.499L758.092 112.568L761.651 107.117L755.367 108.818L761.45 106.5L755.367 104.182L761.651 105.883L758.092 100.432L762.176 105.501L762.5 99Z" fill="#D9D9D9"/>
<path d="M624.5 110L624.824 116.501L628.908 111.432L625.349 116.883L631.633 115.182L625.55 117.5L631.633 119.818L625.349 118.117L628.908 123.568L624.824 118.499L624.5 125L624.176 118.499L620.092 123.568L623.651 118.117L617.367 119.818L623.45 117.5L617.367 115.182L623.651 116.883L620.092 111.432L624.176 116.501L624.5 110Z" fill="#D9D9D9"/>
<path d="M609.5 175L609.824 181.501L613.908 176.432L610.349 181.883L616.633 180.182L610.55 182.5L616.633 184.818L610.349 183.117L613.908 188.568L609.824 183.499L609.5 190L609.176 183.499L605.092 188.568L608.651 183.117L602.367 184.818L608.45 182.5L602.367 180.182L608.651 181.883L605.092 176.432L609.176 181.501L609.5 175Z" fill="#D9D9D9"/>
<path d="M793.5 130L793.781 135.635L797.321 131.241L794.236 135.965L799.682 134.491L794.41 136.5L799.682 138.509L794.236 137.035L797.321 141.759L793.781 137.365L793.5 143L793.219 137.365L789.679 141.759L792.764 137.035L787.318 138.509L792.59 136.5L787.318 134.491L792.764 135.965L789.679 131.241L793.219 135.635L793.5 130Z" fill="#D9D9D9"/>
<path d="M656.5 149L656.781 154.635L660.321 150.241L657.236 154.965L662.682 153.491L657.41 155.5L662.682 157.509L657.236 156.035L660.321 160.759L656.781 156.365L656.5 162L656.219 156.365L652.679 160.759L655.764 156.035L650.318 157.509L655.59 155.5L650.318 153.491L655.764 154.965L652.679 150.241L656.219 154.635L656.5 149Z" fill="#D9D9D9"/>
<path d="M752 120L752.216 124.334L754.939 120.955L752.566 124.589L756.755 123.455L752.7 125L756.755 126.545L752.566 125.411L754.939 129.045L752.216 125.666L752 130L751.784 125.666L749.061 129.045L751.434 125.411L747.245 126.545L751.3 125L747.245 123.455L751.434 124.589L749.061 120.955L751.784 124.334L752 120Z" fill="#D9D9D9"/>
<path d="M711 145L711.216 149.334L713.939 145.955L711.566 149.589L715.755 148.455L711.7 150L715.755 151.545L711.566 150.411L713.939 154.045L711.216 150.666L711 155L710.784 150.666L708.061 154.045L710.434 150.411L706.245 151.545L710.3 150L706.245 148.455L710.434 149.589L708.061 145.955L710.784 149.334L711 145Z" fill="#D9D9D9"/>
<path d="M641 208L641.216 212.334L643.939 208.955L641.566 212.589L645.755 211.455L641.7 213L645.755 214.545L641.566 213.411L643.939 217.045L641.216 213.666L641 218L640.784 213.666L638.061 217.045L640.434 213.411L636.245 214.545L640.3 213L636.245 211.455L640.434 212.589L638.061 208.955L640.784 212.334L641 208Z" fill="#D9D9D9"/>
<path d="M559 155L559.216 159.334L561.939 155.955L559.566 159.589L563.755 158.455L559.7 160L563.755 161.545L559.566 160.411L561.939 164.045L559.216 160.666L559 165L558.784 160.666L556.061 164.045L558.434 160.411L554.245 161.545L558.3 160L554.245 158.455L558.434 159.589L556.061 155.955L558.784 159.334L559 155Z" fill="#D9D9D9"/>
<path d="M1687 146L1687.3 152.068L1691.11 147.337L1687.79 152.424L1693.66 150.837L1687.98 153L1693.66 155.163L1687.79 153.576L1691.11 158.663L1687.3 153.932L1687 160L1686.7 153.932L1682.89 158.663L1686.21 153.576L1680.34 155.163L1686.02 153L1680.34 150.837L1686.21 152.424L1682.89 147.337L1686.7 152.068L1687 146Z" fill="#D9D9D9"/>
<path d="M1803 132L1803.3 138.068L1807.11 133.337L1803.79 138.424L1809.66 136.837L1803.98 139L1809.66 141.163L1803.79 139.576L1807.11 144.663L1803.3 139.932L1803 146L1802.7 139.932L1798.89 144.663L1802.21 139.576L1796.34 141.163L1802.02 139L1796.34 136.837L1802.21 138.424L1798.89 133.337L1802.7 138.068L1803 132Z" fill="#D9D9D9"/>
<path d="M1902.5 87L1902.74 91.7677L1905.73 88.0504L1903.12 92.0474L1907.73 90.8004L1903.27 92.5L1907.73 94.1996L1903.12 92.9526L1905.73 96.9496L1902.74 93.2323L1902.5 98L1902.26 93.2323L1899.27 96.9496L1901.88 92.9526L1897.27 94.1996L1901.73 92.5L1897.27 90.8004L1901.88 92.0474L1899.27 88.0504L1902.26 91.7677L1902.5 87Z" fill="#D9D9D9"/>
<path d="M1734.5 76L1734.74 80.7677L1737.73 77.0504L1735.12 81.0474L1739.73 79.8004L1735.27 81.5L1739.73 83.1996L1735.12 81.9526L1737.73 85.9496L1734.74 82.2323L1734.5 87L1734.26 82.2323L1731.27 85.9496L1733.88 81.9526L1729.27 83.1996L1733.73 81.5L1729.27 79.8004L1733.88 81.0474L1731.27 77.0504L1734.26 80.7677L1734.5 76Z" fill="#D9D9D9"/>
<path d="M1804.5 11L1804.74 15.7677L1807.73 12.0504L1805.12 16.0474L1809.73 14.8004L1805.27 16.5L1809.73 18.1996L1805.12 16.9526L1807.73 20.9496L1804.74 17.2323L1804.5 22L1804.26 17.2323L1801.27 20.9496L1803.88 16.9526L1799.27 18.1996L1803.73 16.5L1799.27 14.8004L1803.88 16.0474L1801.27 12.0504L1804.26 15.7677L1804.5 11Z" fill="#D9D9D9"/>
<path d="M1673 4L1673.3 10.068L1677.11 5.33688L1673.79 10.424L1679.66 8.83688L1673.98 11L1679.66 13.1631L1673.79 11.576L1677.11 16.6631L1673.3 11.932L1673 18L1672.7 11.932L1668.89 16.6631L1672.21 11.576L1666.34 13.1631L1672.02 11L1666.34 8.83688L1672.21 10.424L1668.89 5.33688L1672.7 10.068L1673 4Z" fill="#D9D9D9"/>
<path d="M1195.5 47L1195.87 54.3682L1200.5 48.6234L1196.46 54.8005L1203.58 52.8734L1196.69 55.5L1203.58 58.1266L1196.46 56.1995L1200.5 62.3766L1195.87 56.6318L1195.5 64L1195.13 56.6318L1190.5 62.3766L1194.54 56.1995L1187.42 58.1266L1194.31 55.5L1187.42 52.8734L1194.54 54.8005L1190.5 48.6234L1195.13 54.3682L1195.5 47Z" fill="#D9D9D9"/>
<path d="M1363 63L1363.3 69.068L1367.11 64.3369L1363.79 69.424L1369.66 67.8369L1363.98 70L1369.66 72.1631L1363.79 70.576L1367.11 75.6631L1363.3 70.932L1363 77L1362.7 70.932L1358.89 75.6631L1362.21 70.576L1356.34 72.1631L1362.02 70L1356.34 67.8369L1362.21 69.424L1358.89 64.3369L1362.7 69.068L1363 63Z" fill="#D9D9D9"/>
<path d="M1404 105L1404.3 111.068L1408.11 106.337L1404.79 111.424L1410.66 109.837L1404.98 112L1410.66 114.163L1404.79 112.576L1408.11 117.663L1404.3 112.932L1404 119L1403.7 112.932L1399.89 117.663L1403.21 112.576L1397.34 114.163L1403.02 112L1397.34 109.837L1403.21 111.424L1399.89 106.337L1403.7 111.068L1404 105Z" fill="#D9D9D9"/>
<path d="M1459 144L1459.3 150.068L1463.11 145.337L1459.79 150.424L1465.66 148.837L1459.98 151L1465.66 153.163L1459.79 151.576L1463.11 156.663L1459.3 151.932L1459 158L1458.7 151.932L1454.89 156.663L1458.21 151.576L1452.34 153.163L1458.02 151L1452.34 148.837L1458.21 150.424L1454.89 145.337L1458.7 150.068L1459 144Z" fill="#D9D9D9"/>
<path d="M1291 58L1291.3 64.068L1295.11 59.3369L1291.79 64.424L1297.66 62.8369L1291.98 65L1297.66 67.1631L1291.79 65.576L1295.11 70.6631L1291.3 65.932L1291 72L1290.7 65.932L1286.89 70.6631L1290.21 65.576L1284.34 67.1631L1290.02 65L1284.34 62.8369L1290.21 64.424L1286.89 59.3369L1290.7 64.068L1291 58Z" fill="#D9D9D9"/>
<path d="M1345 84L1345.3 90.068L1349.11 85.3369L1345.79 90.424L1351.66 88.8369L1345.98 91L1351.66 93.1631L1345.79 91.576L1349.11 96.6631L1345.3 91.932L1345 98L1344.7 91.932L1340.89 96.6631L1344.21 91.576L1338.34 93.1631L1344.02 91L1338.34 88.8369L1344.21 90.424L1340.89 85.3369L1344.7 90.068L1345 84Z" fill="#D9D9D9"/>
<path d="M1373 124L1373.3 130.068L1377.11 125.337L1373.79 130.424L1379.66 128.837L1373.98 131L1379.66 133.163L1373.79 131.576L1377.11 136.663L1373.3 131.932L1373 138L1372.7 131.932L1368.89 136.663L1372.21 131.576L1366.34 133.163L1372.02 131L1366.34 128.837L1372.21 130.424L1368.89 125.337L1372.7 130.068L1373 124Z" fill="#D9D9D9"/>
<path d="M1248 165L1248.3 171.068L1252.11 166.337L1248.79 171.424L1254.66 169.837L1248.98 172L1254.66 174.163L1248.79 172.576L1252.11 177.663L1248.3 172.932L1248 179L1247.7 172.932L1243.89 177.663L1247.21 172.576L1241.34 174.163L1247.02 172L1241.34 169.837L1247.21 171.424L1243.89 166.337L1247.7 171.068L1248 165Z" fill="#D9D9D9"/>
<path d="M1198 138L1198.3 144.068L1202.11 139.337L1198.79 144.424L1204.66 142.837L1198.98 145L1204.66 147.163L1198.79 145.576L1202.11 150.663L1198.3 145.932L1198 152L1197.7 145.932L1193.89 150.663L1197.21 145.576L1191.34 147.163L1197.02 145L1191.34 142.837L1197.21 144.424L1193.89 139.337L1197.7 144.068L1198 138Z" fill="#D9D9D9"/>
<path d="M1380 165L1380.3 171.068L1384.11 166.337L1380.79 171.424L1386.66 169.837L1380.98 172L1386.66 174.163L1380.79 172.576L1384.11 177.663L1380.3 172.932L1380 179L1379.7 172.932L1375.89 177.663L1379.21 172.576L1373.34 174.163L1379.02 172L1373.34 169.837L1379.21 171.424L1375.89 166.337L1379.7 171.068L1380 165Z" fill="#D9D9D9"/>
<path d="M1013.5 72L1013.78 77.6345L1017.32 73.2414L1014.24 77.9651L1019.68 76.4914L1014.41 78.5L1019.68 80.5086L1014.24 79.0349L1017.32 83.7586L1013.78 79.3655L1013.5 85L1013.22 79.3655L1009.68 83.7586L1012.76 79.0349L1007.32 80.5086L1012.59 78.5L1007.32 76.4914L1012.76 77.9651L1009.68 73.2414L1013.22 77.6345L1013.5 72Z" fill="#D9D9D9"/>
<path d="M1235 24L1235.26 29.2011L1238.53 25.1459L1235.68 29.5063L1240.71 28.1459L1235.84 30L1240.71 31.8541L1235.68 30.4937L1238.53 34.8541L1235.26 30.7989L1235 36L1234.74 30.7989L1231.47 34.8541L1234.32 30.4937L1229.29 31.8541L1234.16 30L1229.29 28.1459L1234.32 29.5063L1231.47 25.1459L1234.74 29.2011L1235 24Z" fill="#D9D9D9"/>
<path d="M1103 35L1103.3 41.068L1107.11 36.3369L1103.79 41.424L1109.66 39.8369L1103.98 42L1109.66 44.1631L1103.79 42.576L1107.11 47.6631L1103.3 42.932L1103 49L1102.7 42.932L1098.89 47.6631L1102.21 42.576L1096.34 44.1631L1102.02 42L1096.34 39.8369L1102.21 41.424L1098.89 36.3369L1102.7 41.068L1103 35Z" fill="#D9D9D9"/>
<path d="M899 57L899.26 62.2011L902.527 58.1459L899.68 62.5063L904.706 61.1459L899.84 63L904.706 64.8541L899.68 63.4937L902.527 67.8541L899.26 63.7989L899 69L898.74 63.7989L895.473 67.8541L898.32 63.4937L893.294 64.8541L898.16 63L893.294 61.1459L898.32 62.5063L895.473 58.1459L898.74 62.2011L899 57Z" fill="#D9D9D9"/>
<path d="M932 22L932.26 27.2011L935.527 23.1459L932.68 27.5063L937.706 26.1459L932.84 28L937.706 29.8541L932.68 28.4937L935.527 32.8541L932.26 28.7989L932 34L931.74 28.7989L928.473 32.8541L931.32 28.4937L926.294 29.8541L931.16 28L926.294 26.1459L931.32 27.5063L928.473 23.1459L931.74 27.2011L932 22Z" fill="#D9D9D9"/>
<path d="M868 22L868.26 27.2011L871.527 23.1459L868.68 27.5063L873.706 26.1459L868.84 28L873.706 29.8541L868.68 28.4937L871.527 32.8541L868.26 28.7989L868 34L867.74 28.7989L864.473 32.8541L867.32 28.4937L862.294 29.8541L867.16 28L862.294 26.1459L867.32 27.5063L864.473 23.1459L867.74 27.2011L868 22Z" fill="#D9D9D9"/>
<path d="M899 7L899.26 12.2011L902.527 8.1459L899.68 12.5063L904.706 11.1459L899.84 13L904.706 14.8541L899.68 13.4937L902.527 17.8541L899.26 13.7989L899 19L898.74 13.7989L895.473 17.8541L898.32 13.4937L893.294 14.8541L898.16 13L893.294 11.1459L898.32 12.5063L895.473 8.1459L898.74 12.2011L899 7Z" fill="#D9D9D9"/>
<path d="M754.5 24L754.824 30.5014L758.908 25.4324L755.349 30.8828L761.633 29.1824L755.55 31.5L761.633 33.8176L755.349 32.1172L758.908 37.5676L754.824 32.4986L754.5 39L754.176 32.4986L750.092 37.5676L753.651 32.1172L747.367 33.8176L753.45 31.5L747.367 29.1824L753.651 30.8828L750.092 25.4324L754.176 30.5014L754.5 24Z" fill="#D9D9D9"/>
<path d="M1007 7L1007.26 12.2011L1010.53 8.1459L1007.68 12.5063L1012.71 11.1459L1007.84 13L1012.71 14.8541L1007.68 13.4937L1010.53 17.8541L1007.26 13.7989L1007 19L1006.74 13.7989L1003.47 17.8541L1006.32 13.4937L1001.29 14.8541L1006.16 13L1001.29 11.1459L1006.32 12.5063L1003.47 8.1459L1006.74 12.2011L1007 7Z" fill="#D9D9D9"/>
<path d="M684 72L684.216 76.3343L686.939 72.9549L684.566 76.5886L688.755 75.4549L684.7 77L688.755 78.5451L684.566 77.4114L686.939 81.0451L684.216 77.6657L684 82L683.784 77.6657L681.061 81.0451L683.434 77.4114L679.245 78.5451L683.3 77L679.245 75.4549L683.434 76.5886L681.061 72.9549L683.784 76.3343L684 72Z" fill="#D9D9D9"/>
<path d="M525.5 39L525.911 47.2351L531.084 40.8143L526.576 47.7182L534.535 45.5643L526.83 48.5L534.535 51.4357L526.576 49.2818L531.084 56.1857L525.911 49.7649L525.5 58L525.089 49.7649L519.916 56.1857L524.424 49.2818L516.465 51.4357L524.17 48.5L516.465 45.5643L524.424 47.7182L519.916 40.8143L525.089 47.2351L525.5 39Z" fill="#D9D9D9"/>
<path d="M18.5 11L18.7812 16.6345L22.3206 12.2414L19.2362 16.9651L24.6819 15.4914L19.41 17.5L24.6819 19.5086L19.2362 18.0349L22.3206 22.7586L18.7812 18.3655L18.5 24L18.2188 18.3655L14.6794 22.7586L17.7638 18.0349L12.3181 19.5086L17.59 17.5L12.3181 15.4914L17.7638 16.9651L14.6794 12.2414L18.2188 16.6345L18.5 11Z" fill="#D9D9D9"/>
<path d="M315.5 70L315.868 77.3682L320.496 71.6234L316.463 77.8005L323.584 75.8734L316.69 78.5L323.584 81.1266L316.463 79.1995L320.496 85.3766L315.868 79.6318L315.5 87L315.132 79.6318L310.504 85.3766L314.537 79.1995L307.416 81.1266L314.31 78.5L307.416 75.8734L314.537 77.8005L310.504 71.6234L315.132 77.3682L315.5 70Z" fill="#D9D9D9"/>
<path d="M608.5 11L608.868 18.3682L613.496 12.6234L609.463 18.8005L616.584 16.8734L609.69 19.5L616.584 22.1266L609.463 20.1995L613.496 26.3766L608.868 20.6318L608.5 28L608.132 20.6318L603.504 26.3766L607.537 20.1995L600.416 22.1266L607.31 19.5L600.416 16.8734L607.537 18.8005L603.504 12.6234L608.132 18.3682L608.5 11Z" fill="#D9D9D9"/>
<path d="M401 11L401.346 17.9348L405.702 12.5279L401.906 18.3417L408.608 16.5279L402.12 19L408.608 21.4721L401.906 19.6583L405.702 25.4721L401.346 20.0652L401 27L400.654 20.0652L396.298 25.4721L400.094 19.6583L393.392 21.4721L399.88 19L393.392 16.5279L400.094 18.3417L396.298 12.5279L400.654 17.9348L401 11Z" fill="#D9D9D9"/>
<path d="M851.14 1919.86L851.426 1919.76L485.056 1558.72L484.901 1558.77C476.835 1549.36 459.996 1542.8 440.336 1542.8C430.767 1542.81 421.406 1544.39 413.377 1547.36C405.349 1550.32 398.994 1554.54 395.077 1559.51L151.26 1799.77L91.5644 1740.95L91.4872 1740.97C89.3596 1738.45 86.0252 1736.32 81.8672 1734.83C77.7091 1733.34 72.8962 1732.55 67.9816 1732.55C57.3583 1732.55 48.2448 1736.17 44.1343 1741.34L-129.894 1912.85H-130.676V1913.61L-147.526 1930.21C-149.552 1931.71 -150.655 1933.54 -150.666 1935.43C-150.666 1940.22 -143.845 1944.1 -135.437 1944.1C-133.762 1944.1 -132.186 1943.91 -130.676 1943.63V1944.2H828.064V1943.88C835.29 1943.57 842.041 1941.71 846.97 1938.69C851.899 1935.67 854.643 1931.7 854.655 1927.57C854.624 1924.88 853.417 1922.22 851.14 1919.86Z" fill="#1A153C"/>
<path d="M1852.08 1954.76L1852.41 1954.71L1436.17 1775.05L1435.99 1775.08C1426.83 1770.39 1407.7 1767.13 1385.36 1767.13C1374.49 1767.14 1363.85 1767.92 1354.73 1769.4C1345.61 1770.87 1338.39 1772.97 1333.94 1775.44L1056.94 1895L989.115 1865.73L989.027 1865.74C986.61 1864.49 982.822 1863.43 978.098 1862.69C973.374 1861.95 967.905 1861.55 962.322 1861.55C950.253 1861.55 939.899 1863.35 935.229 1865.92L737.513 1951.27H736.624V1951.65L717.481 1959.91C715.179 1960.65 713.925 1961.57 713.913 1962.51C713.913 1964.89 721.662 1966.82 731.215 1966.82C733.118 1966.82 734.909 1966.73 736.624 1966.58V1966.87H1825.86V1966.71C1834.07 1966.55 1841.74 1965.63 1847.34 1964.13C1852.94 1962.62 1856.06 1960.65 1856.07 1958.6C1856.04 1957.25 1854.67 1955.93 1852.08 1954.76Z" fill="#1A153C"/>
</g>
<defs>
<filter id="filter0_d_160_4" x="1856" y="-51" width="111" height="111" filterUnits="userSpaceOnUse" color-interpolation-filters="sRGB">
<feFlood flood-opacity="0" result="BackgroundImageFix"/>
<feColorMatrix in="SourceAlpha" type="matrix" values="0 0 0 0 0 0 0 0 0 0 0 0 0 0 0 0 0 0 127 0" result="hardAlpha"/>
<feOffset dy="4"/>
<feGaussianBlur stdDeviation="2"/>
<feComposite in2="hardAlpha" operator="out"/>
<feColorMatrix type="matrix" values="0 0 0 0 0 0 0 0 0 0 0 0 0 0 0 0 0 0 0.25 0"/>
<feBlend mode="normal" in2="BackgroundImageFix" result="effect1_dropShadow_160_4"/>
<feBlend mode="normal" in="SourceGraphic" in2="effect1_dropShadow_160_4" result="shape"/>
</filter>
<filter id="filter1_d_160_4" x="1861.72" y="-39.5557" width="99.5557" height="88.1108" filterUnits="userSpaceOnUse" color-interpolation-filters="sRGB">
<feFlood flood-opacity="0" result="BackgroundImageFix"/>
<feColorMatrix in="SourceAlpha" type="matrix" values="0 0 0 0 0 0 0 0 0 0 0 0 0 0 0 0 0 0 127 0" result="hardAlpha"/>
<feOffset dy="4"/>
<feGaussianBlur stdDeviation="2"/>
<feComposite in2="hardAlpha" operator="out"/>
<feColorMatrix type="matrix" values="0 0 0 0 0 0 0 0 0 0 0 0 0 0 0 0 0 0 0.1 0"/>
<feBlend mode="normal" in2="BackgroundImageFix" result="effect1_dropShadow_160_4"/>
<feBlend mode="normal" in="SourceGraphic" in2="effect1_dropShadow_160_4" result="shape"/>
</filter>
<linearGradient id="paint0_linear_160_4" x1="960" y1="0" x2="960" y2="1944" gradientUnits="userSpaceOnUse">
<stop stop-color="#1A153C"/>
<stop offset="1" stop-color="#1E1266"/>
</linearGradient>
<clipPath id="clip0_160_4">
<rect width="1920" height="1944" fill="white"/>
</clipPath>
<clipPath id="clip1_160_4">
<rect width="103" height="103" fill="white" transform="translate(1860 -43)"/>
</clipPath>
</defs>
</svg>
