<svg width="40" height="40" viewBox="0 0 40 40" fill="none" xmlns="http://www.w3.org/2000/svg">
<g clip-path="url(#clip0_261_437)">
<path d="M20 37.5C15.3587 37.5 10.9075 35.6563 7.62563 32.3744C4.34374 29.0925 2.5 24.6413 2.5 20C2.5 15.3587 4.34374 10.9075 7.62563 7.62563C10.9075 4.34374 15.3587 2.5 20 2.5C24.6413 2.5 29.0925 4.34374 32.3744 7.62563C35.6563 10.9075 37.5 15.3587 37.5 20C37.5 24.6413 35.6563 29.0925 32.3744 32.3744C29.0925 35.6563 24.6413 37.5 20 37.5ZM20 40C25.3043 40 30.3914 37.8929 34.1421 34.1421C37.8929 30.3914 40 25.3043 40 20C40 14.6957 37.8929 9.60859 34.1421 5.85786C30.3914 2.10714 25.3043 0 20 0C14.6957 0 9.60859 2.10714 5.85786 5.85786C2.10714 9.60859 0 14.6957 0 20C0 25.3043 2.10714 30.3914 5.85786 34.1421C9.60859 37.8929 14.6957 40 20 40Z" fill="#FF2600"/>
<path d="M10.7124 31.0825C10.9995 31.2483 11.3406 31.2932 11.6609 31.2074C11.9811 31.1216 12.2541 30.9121 12.4199 30.625C13.188 29.2945 14.293 28.1897 15.6236 27.4217C16.9542 26.6537 18.4635 26.2496 19.9999 26.25C23.2374 26.25 26.0649 28.0075 27.5799 30.625C27.7468 30.9098 28.0196 31.1169 28.3387 31.2013C28.6578 31.2857 28.9974 31.2404 29.2832 31.0753C29.5691 30.9103 29.7781 30.6389 29.8646 30.3203C29.951 30.0018 29.908 29.6619 29.7449 29.375C28.7573 27.6645 27.3368 26.2441 25.6261 25.2567C23.9155 24.2692 21.975 23.7496 19.9999 23.75C18.0247 23.7496 16.0843 24.2692 14.3736 25.2567C12.663 26.2441 11.2424 27.6645 10.2549 29.375C10.0891 29.6621 10.0442 30.0033 10.13 30.3235C10.2158 30.6437 10.4253 30.9167 10.7124 31.0825ZM17.4999 16.25C17.4999 18.32 16.3799 20 14.9999 20C13.6199 20 12.4999 18.32 12.4999 16.25C12.4999 14.18 13.6199 12.5 14.9999 12.5C16.3799 12.5 17.4999 14.18 17.4999 16.25ZM27.4999 16.25C27.4999 18.32 26.3799 20 24.9999 20C23.6199 20 22.4999 18.32 22.4999 16.25C22.4999 14.18 23.6199 12.5 24.9999 12.5C26.3799 12.5 27.4999 14.18 27.4999 16.25Z" fill="#FF2600"/>
</g>
<defs>
<clipPath id="clip0_261_437">
<rect width="40" height="40" fill="white"/>
</clipPath>
</defs>
</svg>
