<svg width="38" height="33" viewBox="0 0 38 33" fill="none" xmlns="http://www.w3.org/2000/svg">
<g filter="url(#filter0_d_533_70)">
<path d="M15.8334 25.0835V17.1668H22.1667V25.0835C22.1667 25.9543 22.8792 26.6668 23.75 26.6668H28.5C29.3709 26.6668 30.0834 25.9543 30.0834 25.0835V14.0001H32.775C33.5034 14.0001 33.8517 13.0976 33.2975 12.6226L20.0609 0.700137C19.4592 0.161803 18.5409 0.161803 17.9392 0.700137L4.70253 12.6226C4.1642 13.0976 4.4967 14.0001 5.22503 14.0001H7.9167V25.0835C7.9167 25.9543 8.6292 26.6668 9.50003 26.6668H14.25C15.1209 26.6668 15.8334 25.9543 15.8334 25.0835Z" fill="#FFBB00"/>
</g>
<defs>
<filter id="filter0_d_533_70" x="0.436768" y="0.296387" width="37.1335" height="34.3706" filterUnits="userSpaceOnUse" color-interpolation-filters="sRGB">
<feFlood flood-opacity="0" result="BackgroundImageFix"/>
<feColorMatrix in="SourceAlpha" type="matrix" values="0 0 0 0 0 0 0 0 0 0 0 0 0 0 0 0 0 0 127 0" result="hardAlpha"/>
<feOffset dy="4"/>
<feGaussianBlur stdDeviation="2"/>
<feComposite in2="hardAlpha" operator="out"/>
<feColorMatrix type="matrix" values="0 0 0 0 0 0 0 0 0 0 0 0 0 0 0 0 0 0 0.25 0"/>
<feBlend mode="normal" in2="BackgroundImageFix" result="effect1_dropShadow_533_70"/>
<feBlend mode="normal" in="SourceGraphic" in2="effect1_dropShadow_533_70" result="shape"/>
</filter>
</defs>
</svg>
