<svg width="38" height="33" viewBox="0 0 38 33" fill="none" xmlns="http://www.w3.org/2000/svg">
<g filter="url(#filter0_d_533_124)">
<path d="M15.8331 25.0835V17.1668H22.1665V25.0835C22.1665 25.9543 22.879 26.6668 23.7498 26.6668H28.4998C29.3706 26.6668 30.0831 25.9543 30.0831 25.0835V14.0001H32.7748C33.5031 14.0001 33.8515 13.0976 33.2973 12.6226L20.0606 0.700137C19.459 0.161803 18.5406 0.161803 17.939 0.700137L4.70229 12.6226C4.16396 13.0976 4.49646 14.0001 5.22479 14.0001H7.91646V25.0835C7.91646 25.9543 8.62896 26.6668 9.49979 26.6668H14.2498C15.1206 26.6668 15.8331 25.9543 15.8331 25.0835Z" fill="white"/>
</g>
<defs>
<filter id="filter0_d_533_124" x="0.436523" y="0.296387" width="37.1338" height="34.3706" filterUnits="userSpaceOnUse" color-interpolation-filters="sRGB">
<feFlood flood-opacity="0" result="BackgroundImageFix"/>
<feColorMatrix in="SourceAlpha" type="matrix" values="0 0 0 0 0 0 0 0 0 0 0 0 0 0 0 0 0 0 127 0" result="hardAlpha"/>
<feOffset dy="4"/>
<feGaussianBlur stdDeviation="2"/>
<feComposite in2="hardAlpha" operator="out"/>
<feColorMatrix type="matrix" values="0 0 0 0 0 0 0 0 0 0 0 0 0 0 0 0 0 0 0.25 0"/>
<feBlend mode="normal" in2="BackgroundImageFix" result="effect1_dropShadow_533_124"/>
<feBlend mode="normal" in="SourceGraphic" in2="effect1_dropShadow_533_124" result="shape"/>
</filter>
</defs>
</svg>
