<svg width="42" height="42" viewBox="0 0 42 42" fill="none" xmlns="http://www.w3.org/2000/svg">
<path d="M15.2502 26.7502H26.7502M40.1668 21.0002C40.1668 31.5859 31.5859 40.1668 21.0002 40.1668C10.4144 40.1668 1.8335 31.5859 1.8335 21.0002C1.8335 10.4144 10.4144 1.8335 21.0002 1.8335C31.5859 1.8335 40.1668 10.4144 40.1668 21.0002Z" stroke="#A69CE6" stroke-width="2.5" stroke-linecap="round" stroke-linejoin="round"/>
<path d="M14.2918 15.2502C14.0377 15.2502 13.7939 15.1492 13.6142 14.9695C13.4345 14.7898 13.3335 14.546 13.3335 14.2918C13.3335 14.0377 13.4345 13.7939 13.6142 13.6142C13.7939 13.4345 14.0377 13.3335 14.2918 13.3335C14.546 13.3335 14.7898 13.4345 14.9695 13.6142C15.1492 13.7939 15.2502 14.0377 15.2502 14.2918C15.2502 14.546 15.1492 14.7898 14.9695 14.9695C14.7898 15.1492 14.546 15.2502 14.2918 15.2502ZM27.7085 15.2502C27.4543 15.2502 27.2106 15.1492 27.0309 14.9695C26.8511 14.7898 26.7502 14.546 26.7502 14.2918C26.7502 14.0377 26.8511 13.7939 27.0309 13.6142C27.2106 13.4345 27.4543 13.3335 27.7085 13.3335C27.9627 13.3335 28.2064 13.4345 28.3861 13.6142C28.5659 13.7939 28.6668 14.0377 28.6668 14.2918C28.6668 14.546 28.5659 14.7898 28.3861 14.9695C28.2064 15.1492 27.9627 15.2502 27.7085 15.2502Z" fill="#A69CE6" stroke="#A69CE6" stroke-width="2.5" stroke-linecap="round" stroke-linejoin="round"/>
</svg>
