<svg width="26" height="26" viewBox="0 0 26 26" fill="none" xmlns="http://www.w3.org/2000/svg">
<path d="M14.3751 0.582031V4.39869C18.6453 5.0159 21.9329 8.66881 21.9329 13.1153C21.9329 14.2489 21.7061 15.3196 21.3031 16.3147L24.6033 18.2419C25.3087 16.68 25.7117 14.9417 25.7117 13.1153C25.7117 6.59043 20.7362 1.21184 14.3751 0.582031ZM13.1155 21.9326C10.777 21.9326 8.53427 21.0037 6.8807 19.3501C5.22712 17.6965 4.29815 15.4538 4.29815 13.1153C4.29815 8.66881 7.58577 5.0159 11.8559 4.39869V0.582031C5.4822 1.21184 0.519287 6.57783 0.519287 13.1153C0.519287 16.456 1.84639 19.6599 4.20864 22.0222C5.3783 23.1918 6.7669 24.1197 8.29514 24.7527C9.82339 25.3857 11.4614 25.7115 13.1155 25.7115C17.2723 25.7115 20.963 23.6835 23.2555 20.5596L19.9805 18.6324C19.1625 19.6683 18.119 20.504 16.9294 21.0759C15.7398 21.6478 14.4354 21.9408 13.1155 21.9326Z" fill="white"/>
</svg>
