<svg width="26" height="26" viewBox="0 0 26 26" fill="none" xmlns="http://www.w3.org/2000/svg">
<path d="M14.3749 0.582031V4.39869C18.645 5.0159 21.9326 8.66881 21.9326 13.1153C21.9326 14.2489 21.7059 15.3196 21.3028 16.3147L24.603 18.2419C25.3084 16.68 25.7115 14.9417 25.7115 13.1153C25.7115 6.59043 20.736 1.21184 14.3749 0.582031ZM13.1153 21.9326C10.7768 21.9326 8.53403 21.0037 6.88045 19.3501C5.22688 17.6965 4.29791 15.4538 4.29791 13.1153C4.29791 8.66881 7.58552 5.0159 11.8556 4.39869V0.582031C5.48196 1.21184 0.519043 6.57783 0.519043 13.1153C0.519043 16.456 1.84614 19.6599 4.20839 22.0222C5.37806 23.1918 6.76666 24.1197 8.2949 24.7527C9.82314 25.3857 11.4611 25.7115 13.1153 25.7115C17.272 25.7115 20.9627 23.6835 23.2552 20.5596L19.9802 18.6324C19.1622 19.6683 18.1187 20.504 16.9291 21.0759C15.7395 21.6478 14.4352 21.9408 13.1153 21.9326Z" fill="#FFBB00"/>
</svg>
