<svg width="30" height="30" viewBox="0 0 30 30" fill="none" xmlns="http://www.w3.org/2000/svg">
<g clip-path="url(#clip0_533_127)">
<path d="M15.071 3.75711C14.9497 3.70064 14.8175 3.67139 14.6837 3.67139C14.5499 3.67139 14.4177 3.70064 14.2964 3.75711L0.530545 10.1812C0.368443 10.2568 0.231988 10.3782 0.137963 10.5304C0.0439377 10.6826 -0.00355773 10.859 0.00131754 11.0378C0.00619281 11.2166 0.0632263 11.3901 0.165404 11.537C0.267581 11.6838 0.410447 11.7976 0.576432 11.8643L14.3423 17.3706C14.5614 17.4585 14.806 17.4585 15.0251 17.3706L25.6964 13.1051V23.8608C25.2096 23.8608 24.7428 24.0542 24.3985 24.3984C24.0543 24.7426 23.861 25.2094 23.861 25.6962V29.3671H29.3673V25.6962C29.3673 25.2094 29.1739 24.7426 28.8297 24.3984C28.4855 24.0542 28.0186 23.8608 27.5319 23.8608V12.369L28.791 11.8643C28.957 11.7976 29.0998 11.6838 29.202 11.537C29.3042 11.3901 29.3612 11.2166 29.3661 11.0378C29.371 10.859 29.3235 10.6826 29.2294 10.5304C29.1354 10.3782 28.999 10.2568 28.8369 10.1812L15.071 3.75711Z" fill="white"/>
<path d="M7.66477 16.578C7.5466 16.5334 7.42051 16.5138 7.2944 16.5202C7.16828 16.5267 7.04485 16.5591 6.93183 16.6154C6.81882 16.6718 6.71864 16.7508 6.63758 16.8476C6.55651 16.9445 6.4963 17.057 6.46072 17.1782L5.54299 20.2984C5.47871 20.5175 5.49838 20.7526 5.59816 20.9579C5.69794 21.1633 5.87067 21.324 6.08262 21.4089L14.3421 24.7127C14.5613 24.8005 14.8058 24.8005 15.0249 24.7127L23.2845 21.4089C23.4964 21.324 23.6691 21.1633 23.7689 20.9579C23.8687 20.7526 23.8884 20.5175 23.8241 20.2984L22.9063 17.1782C22.8708 17.057 22.8106 16.9445 22.7295 16.8476C22.6484 16.7508 22.5483 16.6718 22.4352 16.6154C22.3222 16.5591 22.1988 16.5267 22.0727 16.5202C21.9466 16.5138 21.8205 16.5334 21.7023 16.578L14.6835 19.21L7.66477 16.578Z" fill="white"/>
</g>
<defs>
<clipPath id="clip0_533_127">
<rect width="29.3672" height="29.3672" fill="white"/>
</clipPath>
</defs>
</svg>
