<svg width="25" height="25" viewBox="0 0 25 25" fill="none" xmlns="http://www.w3.org/2000/svg">
<path d="M12.5705 12.5702C10.8682 12.5702 9.41092 11.9641 8.19869 10.7519C6.98645 9.53964 6.38033 8.08238 6.38033 6.38009C6.38033 4.6778 6.98645 3.22053 8.19869 2.0083C9.41092 0.79606 10.8682 0.189941 12.5705 0.189941C14.2728 0.189941 15.73 0.79606 16.9423 2.0083C18.1545 3.22053 18.7606 4.6778 18.7606 6.38009C18.7606 8.08238 18.1545 9.53964 16.9423 10.7519C15.73 11.9641 14.2728 12.5702 12.5705 12.5702ZM0.190186 24.9505V20.6174C0.190186 19.7405 0.416126 18.9347 0.868007 18.2002C1.31989 17.4656 1.9193 16.9044 2.66624 16.5164C4.26536 15.7169 5.89028 15.1175 7.54098 14.7182C9.19169 14.3189 10.8682 14.1188 12.5705 14.1178C14.2728 14.1167 15.9493 14.3169 17.6 14.7182C19.2507 15.1195 20.8756 15.719 22.4747 16.5164C23.2227 16.9033 23.8226 17.4646 24.2745 18.2002C24.7264 18.9358 24.9518 19.7415 24.9508 20.6174V24.9505H0.190186Z" fill="white"/>
</svg>
