<svg width="48" height="48" viewBox="0 0 48 48" fill="none" xmlns="http://www.w3.org/2000/svg">
<g clip-path="url(#clip0_261_444)" filter="url(#filter0_d_261_444)">
<path d="M24 37.5C19.3587 37.5 14.9075 35.6563 11.6256 32.3744C8.34374 29.0925 6.5 24.6413 6.5 20C6.5 15.3587 8.34374 10.9075 11.6256 7.62563C14.9075 4.34374 19.3587 2.5 24 2.5C28.6413 2.5 33.0925 4.34374 36.3744 7.62563C39.6563 10.9075 41.5 15.3587 41.5 20C41.5 24.6413 39.6563 29.0925 36.3744 32.3744C33.0925 35.6563 28.6413 37.5 24 37.5ZM24 40C29.3043 40 34.3914 37.8929 38.1421 34.1421C41.8929 30.3914 44 25.3043 44 20C44 14.6957 41.8929 9.60859 38.1421 5.85786C34.3914 2.10714 29.3043 0 24 0C18.6957 0 13.6086 2.10714 9.85786 5.85786C6.10714 9.60859 4 14.6957 4 20C4 25.3043 6.10714 30.3914 9.85786 34.1421C13.6086 37.8929 18.6957 40 24 40Z" fill="#00FFB7"/>
<path d="M14.7124 23.9175C14.9995 23.7517 15.3406 23.7068 15.6609 23.7926C15.9811 23.8784 16.2541 24.0879 16.4199 24.375C17.188 25.7055 18.293 26.8103 19.6236 27.5783C20.9542 28.3463 22.4635 28.7504 23.9999 28.75C25.5362 28.7504 27.0456 28.3463 28.3762 27.5783C29.7068 26.8103 30.8117 25.7055 31.5799 24.375C31.6613 24.2317 31.7704 24.1059 31.9007 24.0049C32.0309 23.9039 32.1799 23.8297 32.339 23.7865C32.4981 23.7433 32.6642 23.732 32.8276 23.7532C32.9911 23.7745 33.1488 23.8279 33.2915 23.9103C33.4343 23.9927 33.5593 24.1026 33.6595 24.2335C33.7596 24.3645 33.8329 24.5139 33.875 24.6733C33.9171 24.8327 33.9273 24.9988 33.905 25.1622C33.8827 25.3255 33.8282 25.4828 33.7449 25.625C32.7573 27.3355 31.3368 28.7559 29.6261 29.7433C27.9155 30.7308 25.975 31.2504 23.9999 31.25C22.0247 31.2504 20.0843 30.7308 18.3736 29.7433C16.663 28.7559 15.2424 27.3355 14.2549 25.625C14.0891 25.3379 14.0442 24.9967 14.13 24.6765C14.2158 24.3563 14.4253 24.0833 14.7124 23.9175ZM21.4999 16.25C21.4999 18.32 20.3799 20 18.9999 20C17.6199 20 16.4999 18.32 16.4999 16.25C16.4999 14.18 17.6199 12.5 18.9999 12.5C20.3799 12.5 21.4999 14.18 21.4999 16.25ZM31.4999 16.25C31.4999 18.32 30.3799 20 28.9999 20C27.6199 20 26.4999 18.32 26.4999 16.25C26.4999 14.18 27.6199 12.5 28.9999 12.5C30.3799 12.5 31.4999 14.18 31.4999 16.25Z" fill="#00FFB7"/>
</g>
<defs>
<filter id="filter0_d_261_444" x="0" y="0" width="48" height="48" filterUnits="userSpaceOnUse" color-interpolation-filters="sRGB">
<feFlood flood-opacity="0" result="BackgroundImageFix"/>
<feColorMatrix in="SourceAlpha" type="matrix" values="0 0 0 0 0 0 0 0 0 0 0 0 0 0 0 0 0 0 127 0" result="hardAlpha"/>
<feOffset dy="4"/>
<feGaussianBlur stdDeviation="2"/>
<feComposite in2="hardAlpha" operator="out"/>
<feColorMatrix type="matrix" values="0 0 0 0 0 0 0 0 0 0 0 0 0 0 0 0 0 0 0.25 0"/>
<feBlend mode="normal" in2="BackgroundImageFix" result="effect1_dropShadow_261_444"/>
<feBlend mode="normal" in="SourceGraphic" in2="effect1_dropShadow_261_444" result="shape"/>
</filter>
<clipPath id="clip0_261_444">
<rect width="40" height="40" fill="white" transform="translate(4)"/>
</clipPath>
</defs>
</svg>
